<svg xmlns="http://www.w3.org/2000/svg" width="208" height="43" viewBox="0 0 208 43">
  <g fill="#FFFFFF" fill-rule="evenodd">
    <polygon points="15.133 37.081 17.495 37.081 15.593 38.42 16.33 40.547 14.437 39.236 12.542 40.547 13.289 38.42 11.37 37.081 13.724 37.081 14.437 35.006"/>
    <polygon points="21.138 39.116 18.786 39.116 20.705 40.457 19.959 42.582 21.852 41.273 23.745 42.582 23.008 40.457 24.909 39.116 22.548 39.116 21.852 37.043"/>
    <polygon points="30.546 37.493 32.907 37.493 31.005 38.834 31.743 40.96 29.849 39.651 27.955 40.96 28.701 38.834 26.783 37.493 29.136 37.493 29.849 35.419"/>
    <polygon points="37.845 32.02 40.208 32.02 38.305 33.361 39.042 35.487 37.15 34.177 35.256 35.487 36.002 33.361 34.084 32.02 36.435 32.02 37.15 29.947"/>
    <polygon points="40.524 10.996 42.885 10.996 40.982 12.336 41.721 14.462 39.827 13.153 37.932 14.462 38.68 12.336 36.761 10.996 39.115 10.996 39.827 8.922"/>
    <polygon points="35.063 5.135 37.425 5.135 35.522 6.476 36.259 8.602 34.367 7.293 32.473 8.602 33.218 6.476 31.301 5.135 33.652 5.135 34.367 3.062"/>
    <polygon points="28.036 2.305 30.396 2.305 28.495 3.645 29.232 5.771 27.338 4.462 25.445 5.771 26.191 3.645 24.272 2.305 26.626 2.305 27.338 .231"/>
    <polygon points="18.426 0 17.712 2.073 15.359 2.073 17.277 3.413 16.531 5.54 18.426 4.23 20.319 5.54 19.581 3.413 21.483 2.073 19.122 2.073"/>
    <polygon points="11.618 4.987 13.98 4.987 12.078 6.326 12.816 8.454 10.923 7.144 9.028 8.454 9.774 6.326 7.856 4.987 10.209 4.987 10.923 2.914"/>
    <polygon points="6.351 10.251 8.713 10.251 6.811 11.591 7.549 13.718 5.656 12.407 3.761 13.718 4.508 11.591 2.589 10.251 4.942 10.251 5.656 8.178"/>
    <polygon points="2.581 17.734 .23 17.734 2.148 19.074 1.401 21.201 3.295 19.891 5.188 21.201 4.451 19.074 6.354 17.734 3.992 17.734 3.295 15.66"/>
    <polygon points="2.353 25.547 0 25.547 1.919 26.887 1.172 29.014 3.066 27.704 4.959 29.014 4.222 26.887 6.124 25.547 3.762 25.547 3.066 23.474"/>
    <polygon points="8.113 32.035 10.474 32.035 8.573 33.377 9.311 35.503 7.416 34.193 5.523 35.503 6.269 33.377 4.351 32.035 6.704 32.035 7.416 29.964"/>
    <path d="M21.9078402,24.6057453 C22.1463646,23.8383189 22.265625,22.8375684 22.265625,21.6034638 C22.265625,19.9078662 22.0128448,18.6297056 21.5072767,17.7689436 C21.0017086,16.9081815 20.3159612,16.477807 19.4500138,16.477807 C18.2470211,16.477807 17.4225686,17.1959621 16.9766316,18.632294 C16.7432925,19.3945351 16.6266247,20.3849151 16.6266247,21.6034638 C16.6266247,22.8427537 16.7458851,23.8435042 16.9844096,24.6057453 C17.4251612,26.0213359 18.2470211,26.7291206 19.4500138,26.7291206 C20.6426359,26.7291206 21.4619032,26.0213359 21.9078402,24.6057453 Z M23.4556485,17.496716 C24.5497497,18.5597053 25.096792,19.9286075 25.096792,21.6034638 C25.096792,23.27832 24.5497497,24.6472223 23.4556485,25.7102116 C22.3874739,26.7472743 21.0522757,27.2657978 19.4500138,27.2657978 C17.749231,27.2657978 16.3621804,26.6980145 15.2888205,25.5624309 C14.288055,24.4942563 13.7876798,23.2031326 13.7876798,21.689021 C13.7876798,20.0193501 14.3113886,18.6478552 15.3588219,17.5744953 C16.4166259,16.4855795 17.7803429,15.9411297 19.4500138,15.9411297 C21.057461,15.9411297 22.3926592,16.4596533 23.4556485,17.496716 Z M25.9523645,26.5424502 C26.3879308,26.5268943 26.699045,26.4698567 26.8857163,26.3713357 C27.2020204,26.2054057 27.3601701,25.8891063 27.3601701,25.4224281 L27.3601701,17.7144981 C27.3601701,17.2478198 27.2097982,16.9341131 26.9090501,16.7733684 C26.7327494,16.6748474 26.4138574,16.6126246 25.9523645,16.586698 L25.9523645,16.1822456 L31.5213634,16.1822456 L31.5213634,16.586698 C30.8731992,16.6074393 30.4415283,16.6981809 30.2263378,16.8589256 C30.0111473,17.0196703 29.9035537,17.4163409 29.9035537,18.0489491 L29.9035537,25.5702088 C29.9035537,25.9228101 29.9955916,26.1561457 30.1796702,26.2702226 C30.3637488,26.3842995 30.7228264,26.4413371 31.2569137,26.4413371 C32.2161967,26.4413371 33.0212046,26.2300388 33.6719614,25.8074357 C34.3227183,25.3848326 34.88402,24.5616765 35.3558836,23.3379425 L35.8225595,23.3379425 L35.1769912,26.9469027 L25.9523645,26.9469027 L25.9523645,26.5424502 Z M36.5070174,26.5424502 C36.9062866,26.5165237 37.1940671,26.4594861 37.3703678,26.3713357 C37.6814866,26.210591 37.8370437,25.9176252 37.8370437,25.4924295 L37.8370437,17.6367188 C37.8370437,17.227079 37.6892645,16.941891 37.3937016,16.7811463 C37.2225863,16.6878107 36.9270278,16.6229952 36.5070174,16.586698 L36.5070174,16.1822456 L41.3760025,16.1822456 C43.3412363,16.1822456 44.8397695,16.7059544 45.8716468,17.7533877 C46.8101886,18.7074854 47.2794524,19.9882386 47.2794524,21.5956858 C47.2794524,23.037203 46.807596,24.258326 45.8638689,25.2590915 C44.8008796,26.3843046 43.3593841,26.9469027 41.539339,26.9469027 L36.5070174,26.9469027 L36.5070174,26.5424502 Z M40.5943204,26.1846654 C40.7006193,26.3298542 40.9274734,26.4024475 41.2748894,26.4024475 C42.2186164,26.4024475 42.9938092,26.0692961 43.6004909,25.4029833 C44.2071726,24.7366705 44.5105088,23.4572136 44.5105088,21.5645741 C44.5105088,20.4393611 44.3471739,19.4723146 44.0204992,18.6634057 C43.4915972,17.361892 42.5997366,16.7111449 41.3448908,16.7111449 C40.9300657,16.7111449 40.6604334,16.7992939 40.5359859,16.9755946 C40.4530209,17.0896715 40.411539,17.310044 40.411539,17.6367188 L40.411539,25.4768736 C40.4270949,25.8035484 40.4880215,26.0394766 40.5943204,26.1846654 Z M52.0317685,26.5424502 C52.5710411,26.5165237 52.9391929,26.4154116 53.1362348,26.2391109 C53.3332767,26.0628102 53.4317962,25.6791028 53.4317962,25.087977 L53.4317962,18.0489491 C53.4317962,17.4318968 53.3151284,17.030041 53.0817893,16.8433697 C52.9262299,16.7189222 52.5762265,16.6333658 52.0317685,16.586698 L52.0317685,16.1822456 L57.1574253,16.1822456 C58.2204146,16.1822456 59.0811637,16.2937281 59.7396986,16.5166966 C61.0152857,16.9678189 61.6530697,17.7793083 61.6530697,18.9511892 C61.6530697,19.8171365 61.3341777,20.498995 60.6963841,20.9967851 C60.2089647,21.3701277 59.6930337,21.6086485 59.1485758,21.7123548 L62.3530835,26.2468888 C62.4412338,26.3713364 62.5345681,26.4530038 62.633089,26.4918937 C62.73161,26.5307835 62.853463,26.5554134 62.9986518,26.565784 L62.9986518,26.9469027 L59.7396986,26.9469027 L56.4340777,21.9690265 L56.0140694,21.9690265 L56.0140694,25.087977 C56.0140694,25.6479909 56.1074037,26.0252168 56.2940749,26.2196661 C56.4807462,26.4141153 56.8540832,26.521709 57.4140971,26.5424502 L57.4140971,26.9469027 L52.0317685,26.9469027 L52.0317685,26.5424502 Z M58.2502247,21.01623 C58.6987543,20.7388157 58.9230158,20.0971428 58.9230158,19.0911919 C58.9230158,18.4741396 58.8374594,17.9867275 58.666344,17.6289408 C58.3707812,17.0222591 57.8315166,16.7189228 57.0485343,16.7189228 C56.6233386,16.7189228 56.3446322,16.7720715 56.2124067,16.8783704 C56.0801812,16.9846694 56.0140694,17.1596711 56.0140694,17.4033808 L56.0140694,21.4556831 C57.0563174,21.4401271 57.8016951,21.2936442 58.2502247,21.01623 Z M63.5353291,26.9469027 L63.5353291,26.5424502 C63.9916367,26.5268943 64.3157139,26.4646715 64.5075705,26.3557799 C64.8031334,26.1898498 64.9509126,25.8787357 64.9509126,25.4224281 L64.9509126,17.7144981 C64.9509126,17.2478198 64.7979482,16.9341131 64.4920147,16.7733684 C64.315714,16.6748474 63.996822,16.6126246 63.5353291,16.586698 L63.5353291,16.1822456 L72.7132882,16.1822456 L72.7132882,19.3945313 L72.3243916,19.3945313 C72.1221644,18.3678392 71.7786425,17.6652397 71.2938157,17.2867118 C70.8089889,16.9081839 69.9262025,16.7189228 68.64543,16.7189228 C68.1580106,16.7189228 67.8481927,16.7694789 67.7159672,16.8705925 C67.5837417,16.9717061 67.51763,17.172634 67.51763,17.4733822 L67.51763,21.1601217 C68.4250598,21.1704923 69.0395103,21.0058611 69.3609997,20.666223 C69.6824892,20.326585 69.9287879,19.705653 70.0999032,18.8034085 L70.5043556,18.8034085 L70.5043556,24.185737 L70.0999032,24.185737 C69.9858263,23.2783071 69.753787,22.6392268 69.4037783,22.2684769 C69.0537697,21.897727 68.4250598,21.7123548 67.51763,21.7123548 L67.51763,25.5702088 C67.51763,25.9072542 67.6044827,26.1367009 67.7781907,26.2585557 C67.9518987,26.3804106 68.3083836,26.4413371 68.8476562,26.4413371 C69.8639777,26.4413371 70.6936154,26.2442982 71.3365943,25.8502143 C71.9795732,25.4561305 72.5499491,24.7172344 73.0477392,23.6335039 L73.4910813,23.6335039 L72.845513,26.9469027 L63.5353291,26.9469027 Z M79.9623202,21.237901 C80.4652957,20.9164116 80.7167796,20.2241826 80.7167796,19.1611933 C80.7167796,18.4352494 80.5949266,17.8493178 80.3512168,17.4033808 C80.1075071,16.9574438 79.6408359,16.7344787 78.9511892,16.7344787 C78.634885,16.7344787 78.408031,16.7720717 78.2706202,16.8472587 C78.1332094,16.9224458 78.064505,17.0689287 78.064505,17.2867118 L78.064505,21.5645741 C79.0134174,21.5490182 79.6460161,21.4401282 79.9623202,21.237901 Z M74.1599834,26.5424502 C74.6837001,26.506153 75.0349998,26.3959668 75.2138931,26.2118881 C75.3927864,26.0278095 75.4822317,25.6531762 75.4822317,25.087977 L75.4822317,18.0489491 C75.4822317,17.4474527 75.3914901,17.0676342 75.2100041,16.9094822 C75.0285182,16.7513301 74.6785148,16.6437365 74.1599834,16.586698 L74.1599834,16.1822456 L79.2856402,16.1822456 C80.6441924,16.1822456 81.6773506,16.4026181 82.3851459,16.8433697 C83.0929412,17.2841214 83.4468335,18.0411658 83.4468335,19.1145257 C83.4468335,19.6382424 83.3081285,20.1295435 83.0307142,20.5884437 C82.7532999,21.047344 82.2957029,21.416792 81.6579093,21.6967989 C81.1756751,21.8938409 80.6934482,22.0131013 80.211214,22.0545838 C79.7289799,22.0960663 79.0134174,22.1168072 78.064505,22.1168072 L78.064505,25.087977 C78.064505,25.6739175 78.1630245,26.0576249 78.3600664,26.2391109 C78.5571083,26.4205969 78.92526,26.521709 79.4645326,26.5424502 L79.4645326,26.9469027 L74.1599834,26.9469027 L74.1599834,26.5424502 Z M89.2725041,16.1822456 L89.2725041,16.586698 C88.6554518,16.6074393 88.2432256,16.7033661 88.0358131,16.8744815 C87.8284005,17.0455968 87.7246958,17.4370821 87.7246958,18.0489491 L87.7246958,23.3768321 C87.7246958,24.185741 87.8206227,24.810562 88.0124793,25.2513136 C88.3598953,26.0705931 89.0261981,26.4802268 90.0114076,26.4802268 C91.2351416,26.4802268 92.0621867,26.0265186 92.4925678,25.1190888 C92.7310922,24.6212987 92.8503526,23.9238845 92.8503526,23.0268252 L92.8503526,18.1578402 C92.8503526,17.5874557 92.7453516,17.1946741 92.5353464,16.9794835 C92.3253412,16.764293 91.9144112,16.6333658 91.3025442,16.586698 L91.3025442,16.1822456 L94.8026134,16.1822456 L94.8026134,16.586698 C94.2944527,16.685219 93.9587086,16.8057757 93.7953713,16.9483718 C93.6320339,17.0909679 93.5503664,17.4189341 93.5503664,17.9322801 L93.5503664,23.0268252 C93.5503664,24.3801921 93.2236966,25.4250171 92.5703471,26.1613316 C91.9169976,26.8976461 90.8903209,27.2657978 89.4902862,27.2657978 C87.6598705,27.2657978 86.4076361,26.7187555 85.7335454,25.6246543 C85.3757587,25.0438992 85.1968681,24.2946326 85.1968681,23.3768321 L85.1968681,18.0489491 C85.1968681,17.4474527 85.1177932,17.0689305 84.9596412,16.9133711 C84.8014891,16.7578117 84.4450042,16.6489218 83.8901756,16.586698 L83.8901756,16.1822456 L89.2725041,16.1822456 Z M95.3937362,26.5424502 C95.8241172,26.5268943 96.1326387,26.4698567 96.31931,26.3713357 C96.6356141,26.2054057 96.7937638,25.8891063 96.7937638,25.4224281 L96.7937638,17.7144981 C96.7937638,17.2478198 96.6459846,16.9341131 96.3504217,16.7733684 C96.1741211,16.6748474 95.8552291,16.6126246 95.3937362,16.586698 L95.3937362,16.1822456 L100.317167,16.1822456 C101.266079,16.1822456 102.054235,16.2911355 102.681658,16.5089187 C103.863909,16.9185585 104.455026,17.6652324 104.455026,18.7489629 C104.455026,19.4074978 104.215209,19.9299103 103.735568,20.3162161 C103.255926,20.702522 102.736106,20.9475244 102.176092,21.0512306 L102.176092,21.1990113 C102.767218,21.3130882 103.280556,21.504942 103.716123,21.7745783 C104.566514,22.3034802 104.991704,23.0397837 104.991704,23.9835108 C104.991704,24.8650141 104.584663,25.5792803 103.770568,26.1263309 C102.956474,26.6733815 101.87276,26.9469027 100.519393,26.9469027 L95.3937362,26.9469027 L95.3937362,26.5424502 Z M101.32052,20.5301092 C101.657565,20.2086198 101.826085,19.6382439 101.826085,18.8189643 C101.826085,18.2122826 101.715899,17.7015369 101.495523,17.2867118 C101.275148,16.8718868 100.851255,16.6644773 100.223832,16.6644773 C99.8919715,16.6644773 99.6612285,16.7202186 99.5315957,16.8317028 C99.4019628,16.9431871 99.3371474,17.144115 99.3371474,17.4344925 L99.3371474,21.012341 C100.322357,21.012341 100.983475,20.8515987 101.32052,20.5301092 Z M99.4615943,26.0913302 C99.5912271,26.319484 99.8401185,26.4335592 100.208276,26.4335592 C100.960146,26.4335592 101.487744,26.2287424 101.791085,25.8191026 C102.094426,25.4094628 102.246094,24.8261238 102.246094,24.069068 C102.246094,22.9386697 101.911646,22.1868105 101.242741,21.8134679 C100.838286,21.5853141 100.203095,21.4790168 99.3371474,21.4945727 L99.3371474,25.4768736 C99.3423327,25.7568805 99.3838146,25.9616974 99.4615943,26.0913302 Z M106.049502,26.5424502 C106.485069,26.5268943 106.796183,26.4698567 106.982854,26.3713357 C107.299158,26.2054057 107.457308,25.8891063 107.457308,25.4224281 L107.457308,17.7144981 C107.457308,17.2478198 107.306936,16.9341131 107.006188,16.7733684 C106.829887,16.6748474 106.510995,16.6126246 106.049502,16.586698 L106.049502,16.1822456 L111.618501,16.1822456 L111.618501,16.586698 C110.970337,16.6074393 110.538666,16.6981809 110.323476,16.8589256 C110.108285,17.0196703 110.000691,17.4163409 110.000691,18.0489491 L110.000691,25.5702088 C110.000691,25.9228101 110.092729,26.1561457 110.276808,26.2702226 C110.460887,26.3842995 110.819964,26.4413371 111.354051,26.4413371 C112.313334,26.4413371 113.118342,26.2300388 113.769099,25.8074357 C114.419856,25.3848326 114.981158,24.5616765 115.453021,23.3379425 L115.919697,23.3379425 L115.274129,26.9469027 L106.049502,26.9469027 L106.049502,26.5424502 Z M116.643045,26.5424502 C117.094167,26.5320796 117.418244,26.4776346 117.615286,26.3791137 C117.936776,26.2131836 118.097518,25.8942916 118.097518,25.4224281 L118.097518,17.7144981 C118.097518,17.2426345 117.944554,16.9263352 117.63862,16.7655904 C117.451949,16.6670695 117.120094,16.6074393 116.643045,16.586698 L116.643045,16.1822456 L122.212044,16.1822456 L122.212044,16.586698 C121.714254,16.6074393 121.372028,16.6644769 121.185357,16.7578125 C120.874238,16.9185572 120.718681,17.2374492 120.718681,17.7144981 L120.718681,25.4224281 C120.718681,25.8683651 120.843127,26.1665161 121.092022,26.3168902 C121.340917,26.4672643 121.714254,26.5424502 122.212044,26.5424502 L122.212044,26.9469027 L116.643045,26.9469027 L116.643045,26.5424502 Z M130.75999,16.3494711 C131.439266,16.5957735 131.817789,16.7189228 131.895568,16.7189228 C132.097796,16.7189228 132.259834,16.6411443 132.381689,16.4855849 C132.503544,16.3300255 132.580026,16.1666906 132.611138,15.9955752 L133.05448,15.9955752 L133.05448,19.7212044 L132.650028,19.7212044 C132.266314,18.9122955 131.874829,18.2745115 131.47556,17.8078332 C130.728875,16.9470712 129.883681,16.5166966 128.939954,16.5166966 C127.87178,16.5166966 127.113439,16.9768863 126.664909,17.8972795 C126.21638,18.8176726 125.992118,20.053055 125.992118,21.6034638 C125.992118,22.7442328 126.124342,23.6827604 126.388793,24.4190749 C126.881398,25.7983683 127.796592,26.4880047 129.134403,26.4880047 C129.953682,26.4880047 130.715912,26.2598543 131.421114,25.8035467 C131.825569,25.5390957 132.302611,25.116499 132.852254,24.5357439 L133.326708,24.9246405 C132.70447,25.6194725 132.157428,26.1224404 131.685564,26.4335592 C130.845543,26.9883877 129.912201,27.2657978 128.885509,27.2657978 C127.314359,27.2657978 125.997309,26.7991266 124.93432,25.8657702 C123.757254,24.8338928 123.168729,23.4442496 123.168729,21.6967989 C123.168729,19.9649042 123.731327,18.562298 124.85654,17.4889381 C125.914344,16.4829872 127.210653,15.9800194 128.745506,15.9800194 C129.409226,15.9800194 130.080714,16.1031687 130.75999,16.3494711 Z M146.245852,16.3494711 C146.925128,16.5957735 147.30365,16.7189228 147.38143,16.7189228 C147.583657,16.7189228 147.745696,16.6411443 147.86755,16.4855849 C147.989405,16.3300255 148.065888,16.1666906 148.096999,15.9955752 L148.540342,15.9955752 L148.540342,19.7212044 L148.135889,19.7212044 C147.752176,18.9122955 147.360691,18.2745115 146.961421,17.8078332 C146.214736,16.9470712 145.369543,16.5166966 144.425816,16.5166966 C143.357641,16.5166966 142.599301,16.9768863 142.150771,17.8972795 C141.702241,18.8176726 141.47798,20.053055 141.47798,21.6034638 C141.47798,22.7442328 141.610203,23.6827604 141.874654,24.4190749 C142.367259,25.7983683 143.282453,26.4880047 144.620264,26.4880047 C145.439544,26.4880047 146.201773,26.2598543 146.906976,25.8035467 C147.31143,25.5390957 147.788472,25.116499 148.338115,24.5357439 L148.812569,24.9246405 C148.190332,25.6194725 147.643289,26.1224404 147.171426,26.4335592 C146.331405,26.9883877 145.398062,27.2657978 144.37137,27.2657978 C142.80022,27.2657978 141.48317,26.7991266 140.420181,25.8657702 C139.243115,24.8338928 138.654591,23.4442496 138.654591,21.6967989 C138.654591,19.9649042 139.217189,18.562298 140.342402,17.4889381 C141.400206,16.4829872 142.696515,15.9800194 144.231368,15.9800194 C144.895088,15.9800194 145.566576,16.1031687 146.245852,16.3494711 Z M155.836041,23.1901618 L154.311567,19.5034223 L154.179342,19.5034223 L152.740425,23.1901618 L155.836041,23.1901618 Z M149.86259,26.5424502 C150.246303,26.5165237 150.554825,26.3428183 150.788164,26.0213288 C150.938538,25.8191016 151.153725,25.3731713 151.433732,24.6835246 L154.972691,15.9644635 L155.416033,15.9644635 L158.970548,24.3335177 C159.369817,25.2720594 159.667968,25.8774357 159.86501,26.1496647 C160.062052,26.4218936 160.342054,26.5528208 160.705026,26.5424502 L160.705026,26.9469027 L155.548258,26.9469027 L155.548258,26.5424502 C156.066789,26.521709 156.407718,26.4776345 156.571056,26.4102254 C156.734393,26.3428163 156.816061,26.1717035 156.816061,25.8968819 C156.816061,25.7724344 156.774579,25.5831733 156.691614,25.3290929 C156.639761,25.1787188 156.56976,24.9972356 156.48161,24.7846377 L156.077157,23.8201742 L152.499309,23.8201742 C152.26597,24.4527825 152.115598,24.8650087 152.048189,25.0568653 C151.908185,25.4665051 151.838184,25.7646561 151.838184,25.9513274 C151.838184,26.1794812 151.991149,26.3454088 152.297082,26.449115 C152.478568,26.5061535 152.750793,26.5372649 153.113765,26.5424502 L153.113765,26.9469027 L149.86259,26.9469027 L149.86259,26.5424502 Z M161.335039,26.5424502 C161.926164,26.5268943 162.307279,26.4141154 162.478395,26.2041102 C162.64951,25.994105 162.735066,25.6842872 162.735066,25.2746474 L162.735066,17.7300539 C162.247647,17.185596 161.946903,16.8654077 161.832826,16.7694794 C161.718749,16.6735511 161.563192,16.6126246 161.36615,16.586698 L161.36615,16.1822456 L164.741773,16.1822456 L170.217436,22.8946004 L170.295216,22.8946004 L170.295216,18.1578402 C170.295216,17.6185675 170.196696,17.2335638 169.999654,17.0028173 C169.802612,16.7720709 169.408534,16.6333658 168.817409,16.586698 L168.817409,16.1822456 L172.247476,16.1822456 L172.247476,16.586698 C171.749686,16.669663 171.416535,16.7811456 171.248012,16.9211491 C171.07949,17.0611525 170.99523,17.3748593 170.99523,17.8622788 L170.99523,27.242464 L170.551887,27.242464 L163.543971,18.7256291 L163.43508,18.7256291 L163.43508,24.979086 C163.43508,25.4665055 163.502488,25.8113237 163.637306,26.0135509 C163.849904,26.3402256 164.285464,26.5165237 164.943999,26.5424502 L164.943999,26.9469027 L161.335039,26.9469027 L161.335039,26.5424502 Z M178.843162,23.1901618 L177.318688,19.5034223 L177.186463,19.5034223 L175.747546,23.1901618 L178.843162,23.1901618 Z M172.869711,26.5424502 C173.253424,26.5165237 173.561946,26.3428183 173.795285,26.0213288 C173.945659,25.8191016 174.160846,25.3731713 174.440853,24.6835246 L177.979812,15.9644635 L178.423154,15.9644635 L181.977669,24.3335177 C182.376938,25.2720594 182.675089,25.8774357 182.872131,26.1496647 C183.069173,26.4218936 183.349175,26.5528208 183.712147,26.5424502 L183.712147,26.9469027 L178.555379,26.9469027 L178.555379,26.5424502 C179.07391,26.521709 179.414839,26.4776345 179.578177,26.4102254 C179.741514,26.3428163 179.823182,26.1717035 179.823182,25.8968819 C179.823182,25.7724344 179.7817,25.5831733 179.698735,25.3290929 C179.646882,25.1787188 179.576881,24.9972356 179.488731,24.7846377 L179.084278,23.8201742 L175.50643,23.8201742 C175.273091,24.4527825 175.122719,24.8650087 175.05531,25.0568653 C174.915306,25.4665051 174.845306,25.7646561 174.845306,25.9513274 C174.845306,26.1794812 174.99827,26.3454088 175.304204,26.449115 C175.48569,26.5061535 175.757914,26.5372649 176.120886,26.5424502 L176.120886,26.9469027 L172.869711,26.9469027 L172.869711,26.5424502 Z M184.30327,26.5424502 C184.702539,26.5165237 184.99032,26.4594861 185.166621,26.3713357 C185.477739,26.210591 185.633296,25.9176252 185.633296,25.4924295 L185.633296,17.6367188 C185.633296,17.227079 185.485517,16.941891 185.189954,16.7811463 C185.018839,16.6878107 184.723281,16.6229952 184.30327,16.586698 L184.30327,16.1822456 L189.172255,16.1822456 C191.137489,16.1822456 192.636022,16.7059544 193.6679,17.7533877 C194.606441,18.7074854 195.075705,19.9882386 195.075705,21.5956858 C195.075705,23.037203 194.603849,24.258326 193.660122,25.2590915 C192.597132,26.3843046 191.155637,26.9469027 189.335592,26.9469027 L184.30327,26.9469027 L184.30327,26.5424502 Z M188.390573,26.1846654 C188.496872,26.3298542 188.723726,26.4024475 189.071142,26.4024475 C190.014869,26.4024475 190.790062,26.0692961 191.396744,25.4029833 C192.003425,24.7366705 192.306762,23.4572136 192.306762,21.5645741 C192.306762,20.4393611 192.143427,19.4723146 191.816752,18.6634057 C191.28785,17.361892 190.395989,16.7111449 189.141144,16.7111449 C188.726318,16.7111449 188.456686,16.7992939 188.332239,16.9755946 C188.249274,17.0896715 188.207792,17.310044 188.207792,17.6367188 L188.207792,25.4768736 C188.223348,25.8035484 188.284274,26.0394766 188.390573,26.1846654 Z M201.850283,23.1901618 L200.325809,19.5034223 L200.193584,19.5034223 L198.754667,23.1901618 L201.850283,23.1901618 Z M195.876832,26.5424502 C196.260545,26.5165237 196.569067,26.3428183 196.802406,26.0213288 C196.95278,25.8191016 197.167967,25.3731713 197.447974,24.6835246 L200.986933,15.9644635 L201.430275,15.9644635 L204.98479,24.3335177 C205.384059,25.2720594 205.68221,25.8774357 205.879252,26.1496647 C206.076294,26.4218936 206.356297,26.5528208 206.719269,26.5424502 L206.719269,26.9469027 L201.5625,26.9469027 L201.5625,26.5424502 C202.081031,26.521709 202.421961,26.4776345 202.585298,26.4102254 C202.748635,26.3428163 202.830303,26.1717035 202.830303,25.8968819 C202.830303,25.7724344 202.788821,25.5831733 202.705856,25.3290929 C202.654003,25.1787188 202.584002,24.9972356 202.495852,24.7846377 L202.091399,23.8201742 L198.513551,23.8201742 C198.280212,24.4527825 198.12984,24.8650087 198.062431,25.0568653 C197.922427,25.4665051 197.852427,25.7646561 197.852427,25.9513274 C197.852427,26.1794812 198.005391,26.3454088 198.311325,26.449115 C198.492811,26.5061535 198.765036,26.5372649 199.128007,26.5424502 L199.128007,26.9469027 L195.876832,26.9469027 L195.876832,26.5424502 Z"/>
    <polygon fill-rule="nonzero" points="40.234 31.005 207.61 31.005 207.61 30.342 40.234 30.342"/>
  </g>
</svg>
